<?xml version="1.0" encoding="utf-8"?>
<!-- Generator: Adobe Illustrator 24.0.3, SVG Export Plug-In . SVG Version: 6.00 Build 0)  -->
<svg version="1.1" id="Calque_1" xmlns="http://www.w3.org/2000/svg" xmlns:xlink="http://www.w3.org/1999/xlink" x="0px" y="0px"
	 viewBox="0 0 1024 1024" style="enable-background:new 0 0 1024 1024;" xml:space="preserve">
<style type="text/css">
	.st0{fill:#FFFFFF;}
</style>
<path class="st0" d="M614.16,328.21h214.46V185.38H614.16V328.21z M578.98,115.02H863.8c19.43,0,35.18,15.75,35.18,35.18v213.19
	c0,19.43-15.75,35.18-35.18,35.18H578.98c-19.43,0-35.18-15.75-35.18-35.18V150.2C543.8,130.77,559.55,115.02,578.98,115.02
	L578.98,115.02z M828.62,818.62v-284.4H614.16v284.4H828.62z M543.8,853.8V499.04c0-19.43,15.75-35.18,35.18-35.18H863.8
	c19.43,0,35.18,15.75,35.18,35.18V853.8c0,19.43-15.75,35.18-35.18,35.18H578.98C559.55,888.98,543.8,873.23,543.8,853.8z
	 M409.84,818.62V675.79H195.38v142.83H409.84L409.84,818.62z M125.02,853.8V640.61c0-19.43,15.75-35.18,35.18-35.18h284.82
	c19.43,0,35.18,15.75,35.18,35.18V853.8c0,19.43-15.75,35.18-35.18,35.18H160.2C140.77,888.98,125.02,873.23,125.02,853.8z
	 M409.84,469.77v-284.4H195.38v284.4H409.84z M125.02,504.96V150.2c0-19.43,15.75-35.18,35.18-35.18c0,0,0,0,0,0h284.82
	c19.43,0,35.18,15.75,35.18,35.18l0,0v354.76c0,19.43-15.75,35.18-35.18,35.18H160.2C140.77,540.14,125.02,524.38,125.02,504.96z"/>
</svg>
