<?xml version="1.0" encoding="utf-8"?>
<!-- Generator: Adobe Illustrator 24.0.3, SVG Export Plug-In . SVG Version: 6.00 Build 0)  -->
<svg version="1.1" id="Calque_1" xmlns="http://www.w3.org/2000/svg" xmlns:xlink="http://www.w3.org/1999/xlink" x="0px" y="0px"
	 viewBox="0 0 256 256" style="enable-background:new 0 0 256 256;" xml:space="preserve">
<style type="text/css">
	.st0{fill:#FFFFFF;}
</style>
<g>
	<g>
		<path class="st0" d="M142.2,246H52.5c-7.8,0-14.2-6.4-14.2-14.2V24.2c0-7.8,6.4-14.2,14.2-14.2h151c7.8,0,14.2,6.3,14.2,14.1
			v141.7c0,4.9-2.4,10.9-5.7,14.6l-55,59.1C153.4,243.4,147.5,246,142.2,246z M57.2,227.1H142c0.4-0.1,1-0.4,1.3-0.6l54.8-59
			c0.2-0.3,0.7-1.4,0.7-1.9V28.9H57.2V227.1z"/>
		<path class="st0" d="M142.2,241.9c-3.9,0-7.1-3.2-7.1-7.1v-60.4c0-8.6,7.1-15.7,15.7-15.7h58c3.9,0,7.1,3.2,7.1,7.1
			c0,3.9-3.2,7.1-7.1,7.1h-58c-0.9,0-1.6,0.7-1.6,1.5v60.4C149.2,238.7,146.1,241.9,142.2,241.9z"/>
		<path class="st0" d="M175.2,80.8H80.8c-5.2,0-9.4-4.2-9.4-9.4s4.2-9.4,9.4-9.4h94.4c5.2,0,9.4,4.2,9.4,9.4S180.4,80.8,175.2,80.8z
			"/>
		<path class="st0" d="M175.2,132.7H80.8c-5.2,0-9.4-4.2-9.4-9.4c0-5.2,4.2-9.4,9.4-9.4h94.4c5.2,0,9.4,4.2,9.4,9.4
			S180.4,132.7,175.2,132.7z"/>
	</g>
</g>
</svg>
