<?xml version="1.0" encoding="utf-8"?>
<!-- Generator: Adobe Illustrator 24.0.3, SVG Export Plug-In . SVG Version: 6.00 Build 0)  -->
<svg version="1.1" xmlns="http://www.w3.org/2000/svg" xmlns:xlink="http://www.w3.org/1999/xlink" x="0px" y="0px"
	 viewBox="0 0 775.07 415.7" style="enable-background:new 0 0 775.07 415.7;" xml:space="preserve">
<style type="text/css">
	.st0{display:none;}
	.st1{display:inline;fill:#FFFFFF;}
	.st2{fill:#FFFFFF;}
	.st3{fill:#FFFFFF;stroke:#E9E9E9;stroke-width:14;stroke-miterlimit:10;}
</style>
<g id="Calque_1" class="st0">
	<path class="st1" d="M489.15,328.21h214.46V185.38H489.15V328.21z M453.97,115.02h284.82c19.43,0,35.18,15.75,35.18,35.18v213.19
		c0,19.43-15.75,35.18-35.18,35.18H453.97c-19.43,0-35.18-15.75-35.18-35.18V150.2C418.79,130.77,434.54,115.02,453.97,115.02
		L453.97,115.02z M703.61,818.62v-284.4H489.15v284.4H703.61z M418.79,853.8V499.04c0-19.43,15.75-35.18,35.18-35.18h284.82
		c19.43,0,35.18,15.75,35.18,35.18V853.8c0,19.43-15.75,35.18-35.18,35.18H453.97C434.54,888.98,418.79,873.23,418.79,853.8z
		 M284.82,818.62V675.79H70.36v142.83H284.82L284.82,818.62z M0,853.8V640.61c0-19.43,15.75-35.18,35.18-35.18H320
		c19.43,0,35.18,15.75,35.18,35.18V853.8c0,19.43-15.75,35.18-35.18,35.18H35.18C15.75,888.98,0,873.23,0,853.8z M284.82,469.77
		v-284.4H70.36v284.4H284.82z M0,504.96V150.2c0-19.43,15.75-35.18,35.18-35.18c0,0,0,0,0,0H320c19.43,0,35.18,15.75,35.18,35.18
		l0,0v354.76c0,19.43-15.75,35.18-35.18,35.18H35.18C15.75,540.14,0,524.38,0,504.96z"/>
</g>
<g id="Calque_2">
	<g>
		<polygon class="st2" points="391.97,30.64 745.12,382.62 39.98,383.79 		"/>
		<polyline class="st3" points="39.98,383.79 391.97,30.64 745.12,382.62 		"/>
	</g>
</g>
</svg>
